<svg width="26" height="26" viewBox="0 0 26 26" fill="none" xmlns="http://www.w3.org/2000/svg">
<circle cx="13" cy="13" r="13" fill="#1F1E1E"/>
<path d="M19.7104 8.2101C19.6175 8.11638 19.5069 8.04198 19.385 7.99121C19.2632 7.94044 19.1324 7.91431 19.0004 7.91431C18.8684 7.91431 18.7377 7.94044 18.6159 7.99121C18.494 8.04198 18.3834 8.11638 18.2904 8.2101L10.8404 15.6701L7.71044 12.5301C7.61392 12.4369 7.49998 12.3636 7.37512 12.3143C7.25026 12.2651 7.11694 12.241 6.98276 12.2433C6.84858 12.2457 6.71617 12.2744 6.59309 12.3279C6.47001 12.3814 6.35868 12.4586 6.26544 12.5551C6.1722 12.6516 6.09889 12.7656 6.04968 12.8904C6.00048 13.0153 5.97635 13.1486 5.97867 13.2828C5.98099 13.417 6.00972 13.5494 6.06321 13.6725C6.1167 13.7955 6.19392 13.9069 6.29044 14.0001L10.1304 17.8401C10.2234 17.9338 10.334 18.0082 10.4559 18.059C10.5777 18.1098 10.7084 18.1359 10.8404 18.1359C10.9725 18.1359 11.1032 18.1098 11.225 18.059C11.3469 18.0082 11.4575 17.9338 11.5504 17.8401L19.7104 9.68011C19.8119 9.58646 19.893 9.47281 19.9484 9.34631C20.0038 9.21981 20.0324 9.08321 20.0324 8.94511C20.0324 8.807 20.0038 8.6704 19.9484 8.5439C19.893 8.4174 19.8119 8.30375 19.7104 8.2101Z" fill="white"/>
</svg>
